<svg xmlns="http://www.w3.org/2000/svg" width="1200" height="630" viewBox="0 0 1200 630" role="img" aria-label="barme — a content-addressed object store that speaks S3">
  <defs>
    <linearGradient id="bg" x1="0" y1="0" x2="1" y2="1">
      <stop offset="0" stop-color="#0c0e11"/>
      <stop offset="1" stop-color="#15110b"/>
    </linearGradient>
    <radialGradient id="glow" cx="0.5" cy="0.2" r="0.7">
      <stop offset="0" stop-color="#f0954a" stop-opacity="0.22"/>
      <stop offset="1" stop-color="#f0954a" stop-opacity="0"/>
    </radialGradient>
  </defs>
  <rect width="1200" height="630" fill="url(#bg)"/>
  <rect width="1200" height="630" fill="url(#glow)"/>
  <!-- pot mark -->
  <g transform="translate(96,150) scale(4.6)">
    <rect x="6.5" y="6.5" width="19" height="4" rx="2" fill="#f0954a"/>
    <path d="M8.5 12 L23.5 12 C25 12 25.4 13.5 25.2 15.2 C24.8 19 24.6 21.5 23 23.5 C21.8 25 20 25.5 16 25.5 C12 25.5 10.2 25 9 23.5 C7.4 21.5 7.2 19 6.8 15.2 C6.6 13.5 7 12 8.5 12 Z" fill="#f0954a"/>
    <g stroke="#15110b" stroke-width="1.3" stroke-linecap="round" fill="none"><path d="M16 15 L12.5 20 M16 15 L19.5 20 M16 15 L16 20"/></g>
    <g fill="#15110b"><circle cx="16" cy="14.6" r="1.5"/><circle cx="12.5" cy="20.4" r="1.5"/><circle cx="16" cy="20.4" r="1.5"/><circle cx="19.5" cy="20.4" r="1.5"/></g>
  </g>
  <text x="240" y="250" font-family="Segoe UI, Helvetica, Arial, sans-serif" font-size="120" font-weight="800" fill="#e8eaed" letter-spacing="-3">barme</text>
  <text x="98" y="360" font-family="Segoe UI, Helvetica, Arial, sans-serif" font-size="46" font-weight="700" fill="#f0954a">A content-addressed object store that speaks S3.</text>
  <text x="98" y="430" font-family="Segoe UI, Helvetica, Arial, sans-serif" font-size="30" font-weight="400" fill="#a1a7b0">Dedup by content · cheap versioning · integrity by default · self-hostable</text>
  <g font-family="ui-monospace, Menlo, Consolas, monospace" font-size="26" fill="#d7dbe0">
    <rect x="96" y="486" width="1008" height="72" rx="12" fill="#12151a" stroke="#23272e" stroke-width="2"/>
    <text x="122" y="531"><tspan fill="#f0954a">$</tspan> docker run -p 9000:9000 -v barme:/data elroykanye/barme:latest</text>
  </g>
</svg>
